<svg width="194" height="204" viewBox="0 0 194 204" fill="none" xmlns="http://www.w3.org/2000/svg">
<rect y="10" width="194" height="194" rx="30" fill="url(#paint0_linear_1_7)"/>
<path d="M24.168 131V37.56H43.112L52.2 67.256C53.1387 70.2427 53.9067 72.9733 54.504 75.448C55.1013 77.9227 55.4853 79.7147 55.656 80.824C55.8267 79.7147 56.2107 77.9227 56.808 75.448C57.4053 72.9733 58.1307 70.2427 58.984 67.256L67.688 37.56H86.632V131H71.656V101.944C71.656 97.6773 71.784 93.0267 72.04 87.992C72.296 82.9573 72.5947 77.9227 72.936 72.888C73.2773 67.8533 73.6613 63.0747 74.088 58.552C74.6 54.0293 75.0267 50.0613 75.368 46.648L62.824 90.808H48.232L35.304 46.648C35.7307 49.8907 36.1573 53.7307 36.584 58.168C37.0107 62.52 37.3947 67.2133 37.736 72.248C38.1627 77.1973 38.504 82.232 38.76 87.352C39.016 92.472 39.144 97.336 39.144 101.944V131H24.168ZM103.606 131V37.56H134.71C140.939 37.56 146.358 38.7547 150.966 41.144C155.659 43.5333 159.286 46.904 161.846 51.256C164.406 55.5227 165.686 60.5573 165.686 66.36C165.686 72.0773 164.363 77.112 161.718 81.464C159.158 85.816 155.574 89.1867 150.966 91.576C146.358 93.9653 140.939 95.16 134.71 95.16H119.606V131H103.606ZM119.606 80.696H134.71C139.147 80.696 142.689 79.416 145.334 76.856C148.065 74.2107 149.43 70.712 149.43 66.36C149.43 61.9227 148.065 58.424 145.334 55.864C142.689 53.304 139.147 52.024 134.71 52.024H119.606V80.696Z" fill="white"/>
<path d="M31 162.3C29.46 162.3 28.12 162.04 26.98 161.52C25.84 161 24.96 160.27 24.34 159.33C23.72 158.39 23.41 157.28 23.41 156H27.91C27.91 156.74 28.19 157.33 28.75 157.77C29.33 158.19 30.11 158.4 31.09 158.4C32.03 158.4 32.76 158.19 33.28 157.77C33.82 157.35 34.09 156.77 34.09 156.03C34.09 155.39 33.89 154.84 33.49 154.38C33.09 153.92 32.53 153.61 31.81 153.45L29.59 152.94C27.73 152.5 26.28 151.69 25.24 150.51C24.22 149.31 23.71 147.85 23.71 146.13C23.71 144.85 24 143.74 24.58 142.8C25.18 141.84 26.02 141.1 27.1 140.58C28.18 140.06 29.46 139.8 30.94 139.8C33.18 139.8 34.95 140.36 36.25 141.48C37.57 142.58 38.23 144.07 38.23 145.95H33.73C33.73 145.25 33.48 144.7 32.98 144.3C32.5 143.9 31.8 143.7 30.88 143.7C30.02 143.7 29.36 143.9 28.9 144.3C28.44 144.68 28.21 145.23 28.21 145.95C28.21 146.59 28.39 147.14 28.75 147.6C29.13 148.04 29.66 148.34 30.34 148.5L32.68 149.04C34.62 149.48 36.09 150.28 37.09 151.44C38.09 152.58 38.59 154.04 38.59 155.82C38.59 157.1 38.27 158.23 37.63 159.21C37.01 160.19 36.13 160.95 34.99 161.49C33.87 162.03 32.54 162.3 31 162.3ZM48.9883 162.3C47.5283 162.3 46.2583 162.03 45.1783 161.49C44.0983 160.93 43.2583 160.16 42.6583 159.18C42.0783 158.18 41.7883 157.02 41.7883 155.7V151.8C41.7883 150.48 42.0783 149.33 42.6583 148.35C43.2583 147.35 44.0983 146.58 45.1783 146.04C46.2583 145.48 47.5283 145.2 48.9883 145.2C50.4683 145.2 51.7383 145.48 52.7983 146.04C53.8783 146.58 54.7083 147.35 55.2883 148.35C55.8883 149.33 56.1883 150.48 56.1883 151.8V155.7C56.1883 157.02 55.8883 158.18 55.2883 159.18C54.7083 160.16 53.8783 160.93 52.7983 161.49C51.7383 162.03 50.4683 162.3 48.9883 162.3ZM48.9883 158.4C49.8683 158.4 50.5383 158.17 50.9983 157.71C51.4583 157.23 51.6883 156.56 51.6883 155.7V151.8C51.6883 150.92 51.4583 150.25 50.9983 149.79C50.5383 149.33 49.8683 149.1 48.9883 149.1C48.1283 149.1 47.4583 149.33 46.9783 149.79C46.5183 150.25 46.2883 150.92 46.2883 151.8V155.7C46.2883 156.56 46.5183 157.23 46.9783 157.71C47.4583 158.17 48.1283 158.4 48.9883 158.4ZM63.8266 162V151.5H59.4466V147.45H63.8266V145.2C63.8266 143.66 64.3466 142.43 65.3866 141.51C66.4466 140.57 67.8266 140.1 69.5266 140.1H74.3566V144H69.6766C69.2766 144 68.9466 144.13 68.6866 144.39C68.4466 144.63 68.3266 144.95 68.3266 145.35V147.45H74.3566V151.5H68.3266V162H63.8266ZM86.7648 162C85.0848 162 83.7648 161.52 82.8048 160.56C81.8448 159.6 81.3648 158.28 81.3648 156.6V149.55H77.0148V145.5H81.3648V140.85H85.8648V145.5H92.0148V149.55H85.8648V156.6C85.8648 157.5 86.3148 157.95 87.2148 157.95H91.7148V162H86.7648ZM96.6531 162L94.2531 145.5H97.8531L99.0531 154.5C99.1531 155.16 99.2331 155.91 99.2931 156.75C99.3731 157.59 99.4331 158.28 99.4731 158.82C99.5331 158.28 99.6131 157.6 99.7131 156.78C99.8331 155.94 99.9431 155.18 100.043 154.5L101.423 145.5H104.543L105.863 154.5C105.963 155.18 106.063 155.94 106.163 156.78C106.283 157.62 106.373 158.31 106.433 158.85C106.473 158.29 106.533 157.59 106.613 156.75C106.713 155.89 106.803 155.14 106.883 154.5L108.143 145.5H111.653L109.223 162H104.723L103.493 152.7C103.413 152.14 103.323 151.47 103.223 150.69C103.123 149.91 103.043 149.26 102.983 148.74C102.903 149.26 102.813 149.91 102.713 150.69C102.613 151.47 102.523 152.14 102.443 152.7L101.183 162H96.6531ZM118.811 162.3C117.151 162.3 115.831 161.85 114.851 160.95C113.891 160.05 113.411 158.83 113.411 157.29C113.411 155.63 113.981 154.36 115.121 153.48C116.281 152.58 117.941 152.13 120.101 152.13H123.521V150.9C123.521 150.26 123.291 149.75 122.831 149.37C122.391 148.99 121.791 148.8 121.031 148.8C120.331 148.8 119.751 148.96 119.291 149.28C118.831 149.6 118.551 150.04 118.451 150.6H114.101C114.281 148.94 115.001 147.63 116.261 146.67C117.541 145.69 119.181 145.2 121.181 145.2C123.281 145.2 124.941 145.72 126.161 146.76C127.401 147.78 128.021 149.16 128.021 150.9V162H123.671V159.3H122.951L123.701 158.25C123.701 159.49 123.251 160.48 122.351 161.22C121.471 161.94 120.291 162.3 118.811 162.3ZM120.491 159C121.371 159 122.091 158.77 122.651 158.31C123.231 157.83 123.521 157.21 123.521 156.45V154.68H120.191C119.511 154.68 118.961 154.88 118.541 155.28C118.121 155.66 117.911 156.17 117.911 156.81C117.911 157.49 118.141 158.03 118.601 158.43C119.061 158.81 119.691 159 120.491 159ZM132.39 162V145.5H136.59V148.65H137.73L136.44 150.57C136.44 148.79 136.85 147.45 137.67 146.55C138.49 145.65 139.69 145.2 141.27 145.2C143.09 145.2 144.5 145.75 145.5 146.85C146.52 147.95 147.03 149.5 147.03 151.5V152.85H142.23V151.8C142.23 150.9 141.98 150.2 141.48 149.7C141 149.2 140.35 148.95 139.53 148.95C138.67 148.95 138.01 149.2 137.55 149.7C137.11 150.2 136.89 150.9 136.89 151.8V162H132.39ZM156.948 162.3C155.488 162.3 154.208 162.03 153.108 161.49C152.028 160.93 151.188 160.16 150.588 159.18C150.008 158.18 149.718 157.02 149.718 155.7V151.8C149.718 150.48 150.008 149.33 150.588 148.35C151.188 147.35 152.028 146.58 153.108 146.04C154.208 145.48 155.488 145.2 156.948 145.2C158.408 145.2 159.668 145.48 160.728 146.04C161.808 146.58 162.638 147.35 163.218 148.35C163.818 149.33 164.118 150.48 164.118 151.8V154.8H154.008V155.7C154.008 156.74 154.258 157.53 154.758 158.07C155.258 158.59 156.008 158.85 157.008 158.85C157.708 158.85 158.268 158.73 158.688 158.49C159.128 158.25 159.418 157.92 159.558 157.5H163.968C163.608 158.94 162.788 160.1 161.508 160.98C160.248 161.86 158.728 162.3 156.948 162.3ZM159.828 152.49V151.74C159.828 150.72 159.588 149.94 159.108 149.4C158.648 148.86 157.928 148.59 156.948 148.59C155.968 148.59 155.228 148.87 154.728 149.43C154.248 149.99 154.008 150.78 154.008 151.8V152.25L160.128 152.19L159.828 152.49Z" fill="white"/>
<path d="M24 169.25C23.0335 169.25 22.25 170.034 22.25 171C22.25 171.966 23.0335 172.75 24 172.75V169.25ZM181.104 171L171 160.896L160.896 171L171 181.104L181.104 171ZM24 172.75H171V169.25H24V172.75Z" fill="white"/>
<defs>
<linearGradient id="paint0_linear_1_7" x1="0" y1="10" x2="194" y2="204" gradientUnits="userSpaceOnUse">
<stop stop-color="#FF383C"/>
<stop offset="1" stop-color="#EBD000"/>
</linearGradient>
</defs>
</svg>
