<svg width="214" height="214" viewBox="0 0 214 214" fill="none" xmlns="http://www.w3.org/2000/svg">
<rect width="214" height="214" rx="50" fill="url(#paint0_linear_12_3)"/>
<path d="M108.383 149.469C105.273 149.469 102.492 148.766 100.039 147.359C97.5859 145.953 95.6484 143.914 94.2266 141.242C92.8203 138.57 92.1172 135.344 92.1172 131.562C92.1172 127.75 92.8281 124.508 94.25 121.836C95.6875 119.164 97.6328 117.125 100.086 115.719C102.555 114.312 105.32 113.609 108.383 113.609C111.086 113.609 113.516 114.109 115.672 115.109C117.844 116.109 119.617 117.555 120.992 119.445C122.367 121.336 123.211 123.625 123.523 126.312H116.07C115.789 124.391 114.969 122.883 113.609 121.789C112.25 120.68 110.562 120.125 108.547 120.125C105.859 120.125 103.695 121.125 102.055 123.125C100.414 125.109 99.5938 127.922 99.5938 131.562C99.5938 135.281 100.414 138.109 102.055 140.047C103.711 141.984 105.867 142.953 108.523 142.953C110.477 142.953 112.133 142.438 113.492 141.406C114.867 140.375 115.727 138.93 116.07 137.07H123.523C123.258 139.211 122.492 141.227 121.227 143.117C119.977 145.008 118.266 146.539 116.094 147.711C113.938 148.883 111.367 149.469 108.383 149.469Z" fill="white"/>
<path d="M61.6719 149V114.078H75.4062C78.0625 114.078 80.3203 114.586 82.1797 115.602C84.0547 116.617 85.4844 118.016 86.4688 119.797C87.4531 121.578 87.9453 123.625 87.9453 125.938C87.9453 128.25 87.4453 130.289 86.4453 132.055C85.4453 133.82 84 135.203 82.1094 136.203C80.2188 137.188 77.9297 137.68 75.2422 137.68H69.0312V149H61.6719ZM69.0312 131.773H74.0234C76.1641 131.773 77.75 131.234 78.7812 130.156C79.8281 129.062 80.3516 127.656 80.3516 125.938C80.3516 124.188 79.8281 122.781 78.7812 121.719C77.7344 120.656 76.1406 120.125 74 120.125H69.0312V131.773Z" fill="white"/>
<path d="M54.7344 138.031L30.7344 148.602V141.711L46.9531 135.219V134.891L30.7344 128.375V121.438L54.7344 132.031V138.031Z" fill="white"/>
<path d="M158.656 105.797V69.7969H165.805V74.2266H166.133C166.461 73.5078 166.922 72.7812 167.516 72.0469C168.125 71.3125 168.922 70.7031 169.906 70.2188C170.906 69.7188 172.133 69.4688 173.586 69.4688C175.508 69.4688 177.266 69.9688 178.859 70.9688C180.469 71.9531 181.758 73.4453 182.727 75.4453C183.695 77.4453 184.18 79.9453 184.18 82.9453C184.18 85.8516 183.711 88.3125 182.773 90.3281C181.836 92.3281 180.562 93.8438 178.953 94.875C177.344 95.9062 175.539 96.4219 173.539 96.4219C172.133 96.4219 170.938 96.1875 169.953 95.7188C168.984 95.25 168.188 94.6641 167.562 93.9609C166.953 93.2422 166.477 92.5234 166.133 91.8047H165.922V105.797H158.656ZM165.758 82.9219C165.758 85.2344 166.234 87.1016 167.188 88.5234C168.156 89.9453 169.516 90.6562 171.266 90.6562C173.047 90.6562 174.406 89.9375 175.344 88.5C176.281 87.0469 176.75 85.1875 176.75 82.9219C176.75 80.6406 176.281 78.7891 175.344 77.3672C174.422 75.9453 173.062 75.2344 171.266 75.2344C169.516 75.2344 168.156 75.9297 167.188 77.3203C166.234 78.7109 165.758 80.5781 165.758 82.9219Z" fill="white"/>
<path d="M141.852 96.5156C139.164 96.5156 136.852 95.9688 134.914 94.875C132.977 93.7812 131.484 92.2266 130.438 90.2109C129.391 88.1797 128.867 85.7812 128.867 83.0156C128.867 80.3281 129.383 77.9688 130.414 75.9375C131.461 73.9062 132.93 72.3203 134.82 71.1797C136.711 70.0391 138.938 69.4688 141.5 69.4688C143.812 69.4688 145.898 69.9609 147.758 70.9453C149.633 71.9297 151.117 73.4062 152.211 75.375C153.32 77.3438 153.875 79.8125 153.875 82.7812V84.75H136.016C136.094 86.7344 136.672 88.2891 137.75 89.4141C138.828 90.5391 140.234 91.1016 141.969 91.1016C143.172 91.1016 144.203 90.8438 145.062 90.3281C145.938 89.8125 146.562 89.0625 146.938 88.0781L153.641 88.5234C153.125 90.9297 151.836 92.8672 149.773 94.3359C147.727 95.7891 145.086 96.5156 141.852 96.5156ZM136.062 80.2734H146.914C146.742 78.6172 146.211 77.3047 145.32 76.3359C144.43 75.3672 143.18 74.8828 141.57 74.8828C139.945 74.8828 138.656 75.3906 137.703 76.4062C136.766 77.4062 136.219 78.6953 136.062 80.2734Z" fill="white"/>
<path d="M113.117 96.5156C110.43 96.5156 108.117 95.9688 106.18 94.875C104.242 93.7812 102.75 92.2266 101.703 90.2109C100.656 88.1797 100.133 85.7812 100.133 83.0156C100.133 80.3281 100.648 77.9688 101.68 75.9375C102.727 73.9062 104.195 72.3203 106.086 71.1797C107.977 70.0391 110.203 69.4688 112.766 69.4688C115.078 69.4688 117.164 69.9609 119.023 70.9453C120.898 71.9297 122.383 73.4062 123.477 75.375C124.586 77.3438 125.141 79.8125 125.141 82.7812V84.75H107.281C107.359 86.7344 107.938 88.2891 109.016 89.4141C110.094 90.5391 111.5 91.1016 113.234 91.1016C114.438 91.1016 115.469 90.8438 116.328 90.3281C117.203 89.8125 117.828 89.0625 118.203 88.0781L124.906 88.5234C124.391 90.9297 123.102 92.8672 121.039 94.3359C118.992 95.7891 116.352 96.5156 113.117 96.5156ZM107.328 80.2734H118.18C118.008 78.6172 117.477 77.3047 116.586 76.3359C115.695 75.3672 114.445 74.8828 112.836 74.8828C111.211 74.8828 109.922 75.3906 108.969 76.4062C108.031 77.4062 107.484 78.6953 107.328 80.2734Z" fill="white"/>
<path d="M65.5156 96L58.3906 69.7969H65.7266L69.8047 87.4219H70.0156L74.2812 69.7969H81.4531L85.7656 87.3047H86L89.9844 69.7969H97.3203L90.1953 96H82.5078L78.0078 79.5234H77.7031L73.2031 96H65.5156Z" fill="white"/>
<path d="M41.9844 96.4922C37.75 96.4922 34.3672 95.5234 31.8359 93.5859C29.3203 91.6484 28.0078 88.7969 27.8984 85.0312H35.0469C35.1719 86.7812 35.8594 88.1016 37.1094 88.9922C38.375 89.8672 39.9688 90.3047 41.8906 90.3047C43.7656 90.3047 45.2656 89.9062 46.3906 89.1094C47.5312 88.3125 48.1016 87.2734 48.1016 85.9922C48.1016 84.8203 47.5859 83.9219 46.5547 83.2969C45.5234 82.6562 44.0547 82.1094 42.1484 81.6562L38.3281 80.7188C35.3906 80.0156 33.0703 78.8984 31.3672 77.3672C29.6797 75.8203 28.8359 73.7578 28.8359 71.1797C28.8359 69.0703 29.4062 67.2266 30.5469 65.6484C31.6875 64.0547 33.25 62.8203 35.2344 61.9453C37.2344 61.0547 39.5078 60.6094 42.0547 60.6094C44.6484 60.6094 46.9141 61.0547 48.8516 61.9453C50.7891 62.8359 52.2969 64.0703 53.375 65.6484C54.4688 67.2266 55.0312 69.0469 55.0625 71.1094H47.9375C47.8125 69.75 47.2344 68.6875 46.2031 67.9219C45.1719 67.1562 43.7734 66.7734 42.0078 66.7734C40.2109 66.7734 38.8281 67.1484 37.8594 67.8984C36.8906 68.6328 36.4062 69.5703 36.4062 70.7109C36.4062 71.9453 36.9453 72.8828 38.0234 73.5234C39.1016 74.1484 40.3984 74.6406 41.9141 75L45.0312 75.7734C47.0625 76.2266 48.8672 76.8906 50.4453 77.7656C52.0234 78.625 53.2656 79.7344 54.1719 81.0938C55.0781 82.4375 55.5312 84.0781 55.5312 86.0156C55.5312 89.2188 54.3359 91.7656 51.9453 93.6562C49.5547 95.5469 46.2344 96.4922 41.9844 96.4922Z" fill="white"/>
<defs>
<linearGradient id="paint0_linear_12_3" x1="0" y1="0" x2="214" y2="214" gradientUnits="userSpaceOnUse">
<stop stop-color="#00AADE"/>
<stop offset="1" stop-color="#D400B8"/>
</linearGradient>
</defs>
</svg>
